<?xml version="1.0" standalone="no"?>
<!DOCTYPE svg PUBLIC "-//W3C//DTD SVG 20010904//EN"
 "http://www.w3.org/TR/2001/REC-SVG-20010904/DTD/svg10.dtd">
<svg version="1.0" xmlns="http://www.w3.org/2000/svg"
 width="3307.000000pt" height="1890.000000pt" viewBox="0 0 3307.000000 1890.000000"
 preserveAspectRatio="xMidYMid meet">
<metadata>
Created by potrace 1.16, written by Peter Selinger 2001-2019
</metadata>
<g transform="translate(0.000000,1890.000000) scale(0.100000,-0.100000)"
fill="#000000" stroke="none">
<path d="M17428 16301 c-722 -368 -3005 -1665 -3419 -1942 -91 -61 -97 -69
-123 -174 -112 -449 -577 -3042 -851 -4745 -100 -627 -126 -819 -132 -991 -7
-175 0 -203 64 -259 39 -34 53 -40 90 -40 39 0 49 5 97 53 47 45 57 63 80 136
51 163 155 719 386 2066 318 1856 545 3139 578 3269 7 26 55 -66 422 -795
1365 -2719 1684 -3345 1710 -3359 10 -5 32 3 65 25 56 38 625 492 1245 995
228 185 541 437 695 561 598 481 1364 1063 1379 1048 5 -5 -39 -306 -88 -616
-20 -120 -58 -360 -86 -533 -65 -409 -160 -970 -429 -2535 -121 -704 -229
-1343 -240 -1420 -25 -171 -27 -330 -5 -383 27 -66 105 -132 154 -132 37 0
120 49 131 78 93 238 641 3278 924 5131 75 487 108 754 103 831 -6 109 -107
299 -416 779 -509 795 -1889 2796 -2065 2997 -28 32 -46 44 -66 44 -16 0 -107
-40 -203 -89z"/>
<path d="M14688 10120 c-56 -43 -77 -129 -202 -820 -428 -2363 -799 -4675
-823 -5128 l-6 -122 40 -38 c64 -61 159 -79 220 -42 58 35 64 56 152 520 272
1442 921 5333 921 5521 0 57 -14 77 -73 105 -69 32 -191 34 -229 4z"/>
<path d="M17960 9611 c-89 -18 -133 -75 -168 -221 -29 -121 -145 -767 -321
-1790 -291 -1691 -607 -3676 -637 -3998 l-7 -73 41 -39 c46 -43 102 -58 169
-45 119 22 150 87 227 480 136 694 634 3638 856 5053 83 536 84 559 30 614
-26 25 -35 28 -92 27 -35 -1 -79 -4 -98 -8z"/>
<path d="M16123 8669 c-51 -25 -89 -67 -116 -129 -25 -57 -66 -285 -418 -2345
-159 -935 -346 -2019 -414 -2410 -190 -1084 -197 -1170 -109 -1258 69 -68 133
-83 205 -47 43 23 92 89 109 150 49 172 441 2372 680 3815 234 1414 292 1813
294 2027 1 134 -8 155 -84 195 -54 29 -93 29 -147 2z"/>
<path d="M21190 6615 c-113 -63 -209 -116 -214 -118 -5 -2 44 -109 109 -237
66 -129 128 -254 139 -277 11 -24 24 -43 29 -43 7 0 174 131 424 336 l26 20
-145 214 c-80 118 -149 215 -154 216 -5 2 -101 -48 -214 -111z"/>
<path d="M19430 5645 c-66 -19 -97 -32 -138 -60 -89 -60 -177 -166 -236 -283
-15 -30 -29 -52 -32 -50 -5 6 33 261 51 346 l5 22 -229 0 -229 0 -4 -32 c-6
-41 -78 -474 -118 -703 -16 -93 -41 -242 -55 -330 -14 -88 -33 -194 -41 -235
-7 -41 -23 -131 -33 -200 -11 -69 -37 -231 -59 -360 -22 -129 -43 -259 -47
-287 l-7 -53 225 0 225 0 6 28 c14 64 146 856 146 875 0 21 19 2 25 -25 24
-111 124 -231 223 -269 81 -31 229 -37 325 -14 217 52 369 190 477 433 76 170
110 355 110 592 0 357 -104 544 -337 605 -69 18 -191 18 -253 0z m26 -364
c101 -61 125 -189 84 -435 -39 -228 -59 -293 -119 -373 -83 -113 -294 -155
-430 -85 -47 24 -82 87 -83 149 -1 50 23 217 48 338 32 155 162 342 276 399
67 33 175 37 224 7z"/>
<path d="M22903 5645 c-152 -41 -287 -166 -382 -353 -12 -24 -25 -42 -27 -39
-3 3 9 81 25 173 17 93 31 175 31 182 0 10 -49 12 -227 10 l-228 -3 -62 -370
c-34 -203 -94 -561 -133 -795 -39 -234 -91 -542 -115 -685 -25 -143 -47 -279
-51 -303 l-7 -42 229 2 228 3 43 255 c23 140 57 341 74 445 17 105 34 194 39
198 4 5 16 -17 26 -48 38 -122 120 -212 229 -250 74 -26 217 -31 309 -10 364
80 589 470 589 1020 1 244 -42 392 -142 498 -81 86 -186 127 -321 126 -41 0
-99 -7 -127 -14z m23 -361 c106 -50 130 -198 80 -479 -39 -216 -63 -280 -135
-358 -81 -89 -286 -121 -399 -63 -42 22 -80 70 -88 112 -17 89 39 402 90 511
69 144 157 239 261 280 45 17 151 16 191 -3z"/>
<path d="M24274 5641 c-296 -80 -482 -332 -555 -751 -9 -46 -13 -150 -13 -270
1 -167 4 -206 22 -274 66 -241 221 -356 461 -343 205 10 336 105 468 336 24
42 43 70 43 64 0 -9 -15 -111 -53 -353 -2 -13 29 -15 217 -18 121 -1 223 1
228 6 7 7 109 590 154 879 8 51 34 212 59 358 25 147 45 284 45 306 l0 39
-222 -2 -222 -3 -17 -95 c-9 -52 -20 -116 -23 -142 -4 -27 -11 -48 -16 -48 -4
0 -13 22 -20 50 -15 63 -75 156 -127 197 -68 54 -135 75 -253 79 -81 3 -121 0
-176 -15z m442 -365 c106 -49 118 -114 71 -381 -32 -175 -49 -227 -112 -325
-91 -142 -195 -214 -310 -214 -87 0 -137 30 -173 103 -25 52 -27 65 -26 171 1
157 49 404 94 487 37 70 53 90 102 127 53 40 110 55 213 55 75 1 99 -3 141
-23z"/>
<path d="M20247 5458 c-15 -90 -27 -169 -27 -175 0 -10 57 -13 250 -13 l251 0
-7 -37 c-3 -21 -27 -153 -54 -293 -89 -475 -93 -504 -88 -592 13 -219 131
-334 353 -346 237 -11 394 90 719 466 l89 103 -44 37 c-24 20 -69 59 -99 87
-30 27 -67 60 -81 73 l-26 23 -213 -216 c-201 -203 -243 -235 -255 -202 -3 6
4 59 14 117 11 58 40 213 65 345 24 132 53 287 65 345 11 58 32 168 46 245 14
77 28 152 31 168 l6 27 -484 0 -484 0 -27 -162z"/>
<path d="M24726 3548 c-10 -46 -76 -463 -76 -478 0 -5 20 -10 44 -10 l44 0 11
68 c6 37 16 88 22 115 13 57 58 110 90 105 40 -6 45 -29 26 -140 -25 -150 -26
-148 27 -148 l44 0 12 73 c40 236 26 287 -78 287 -36 0 -49 -5 -73 -31 -16
-17 -29 -30 -29 -28 0 2 7 42 15 89 22 123 23 120 -30 120 -38 0 -45 -3 -49
-22z"/>
<path d="M24397 3533 c-3 -5 -8 -24 -12 -43 -13 -70 -13 -70 -60 -70 -48 0
-50 -1 -60 -47 l-7 -33 46 0 c54 0 53 4 31 -120 -20 -112 -19 -117 11 -147 21
-21 32 -25 65 -20 42 6 169 89 169 111 0 13 -31 46 -44 46 -4 0 -31 -18 -60
-40 -29 -22 -55 -40 -57 -40 -4 0 21 163 30 208 1 1 32 2 70 2 l69 0 5 33 c2
17 3 35 0 40 -2 4 -32 7 -67 7 l-63 0 8 48 c12 73 13 72 -30 72 -22 0 -42 -3
-44 -7z"/>
<path d="M22714 3401 c-19 -12 -42 -41 -59 -75 -24 -49 -27 -65 -23 -130 3
-61 8 -79 27 -99 44 -48 123 -43 170 11 16 18 21 21 17 9 -3 -10 -6 -30 -6
-44 0 -14 -13 -37 -29 -54 -34 -34 -77 -38 -122 -12 -28 16 -29 16 -54 -7 -32
-30 -32 -36 8 -60 39 -24 153 -28 195 -6 35 18 66 53 80 91 19 47 72 379 63
388 -5 5 -26 7 -47 5 -32 -2 -40 -7 -42 -26 l-4 -23 -25 25 c-32 33 -102 36
-149 7z m144 -67 c24 -16 24 -44 0 -121 -20 -66 -93 -95 -124 -48 -13 20 -14
32 -5 75 14 65 27 89 54 100 33 13 50 12 75 -6z"/>
<path d="M23081 3401 c-6 -11 -11 -29 -11 -40 0 -18 6 -21 40 -21 22 0 40 -3
40 -7 0 -5 -9 -62 -20 -128 -11 -66 -20 -126 -20 -132 0 -9 16 -13 45 -13 25
0 45 2 45 4 0 2 7 43 15 91 25 140 45 165 133 165 l50 0 7 41 c4 24 3 45 -3
51 -17 17 -80 -1 -117 -34 l-35 -30 2 33 3 34 -82 3 c-73 2 -83 1 -92 -17z"/>
<path d="M23539 3399 c-104 -61 -132 -243 -48 -313 38 -32 67 -40 125 -33 51
5 112 43 136 85 25 42 39 116 32 165 -5 30 -18 53 -44 80 -36 35 -41 37 -101
37 -46 0 -74 -6 -100 -21z m136 -69 c15 -16 17 -30 11 -82 -9 -88 -29 -113
-91 -113 -44 0 -49 3 -57 27 -14 40 8 135 38 164 29 30 74 31 99 4z"/>
<path d="M23874 3409 c-11 -19 -44 -221 -44 -276 0 -42 4 -55 22 -67 33 -24
66 -19 98 12 l28 29 11 -23 c19 -42 83 -44 134 -4 64 51 106 216 77 304 -12
37 -20 41 -54 27 -17 -6 -19 -19 -21 -97 -1 -94 -19 -160 -47 -178 -36 -22
-40 5 -18 129 27 156 27 155 -10 155 -38 0 -44 -13 -65 -145 -16 -101 -34
-145 -59 -145 -23 0 -23 20 -1 153 12 70 19 130 16 132 -9 10 -60 5 -67 -6z"/>
</g>
</svg>
